<svg xmlns="http://www.w3.org/2000/svg" viewBox="0 0 500 500"><g id="freepik--Background--inject-422"><g id="freepik--background--inject-422"><path d="M469.2,236.63a199.58,199.58,0,0,0-6-49.57c-8.56-33.93-26.05-65.08-48.81-91.51C341,10.27,186.63,11.42,105,76.61c-78.21,62.46-111.88,158.68-33.54,200,40.19,21.18,93,14.25,122.59,53.79,8.09,10.81,13.58,23.53,22.7,33.5,13.8,15.08,35.18,31.86,67.68,36.55,47,6.78,85.3-2.35,125.92-37.45C462.9,317.57,469.14,252.57,469.2,236.63Zm3.67,95.79c-1.28-23.6-9.71-18.15-13.78-6.43-8.12,23.45-26.43,45.55-51.93,63.55-30.79,21.76-74,29.65-86.18,32s-8.52,15,34.4,19.85C416.05,448.28,476.88,406.58,472.87,332.42Z" style="fill:#92E3A9"></path><path d="M469.2,236.63a199.58,199.58,0,0,0-6-49.57c-8.56-33.93-26.05-65.08-48.81-91.51C341,10.27,186.63,11.42,105,76.61c-78.21,62.46-111.88,158.68-33.54,200,40.19,21.18,93,14.25,122.59,53.79,8.09,10.81,13.58,23.53,22.7,33.5,13.8,15.08,35.18,31.86,67.68,36.55,47,6.78,85.3-2.35,125.92-37.45C462.9,317.57,469.14,252.57,469.2,236.63Zm3.67,95.79c-1.28-23.6-9.71-18.15-13.78-6.43-8.12,23.45-26.43,45.55-51.93,63.55-30.79,21.76-74,29.65-86.18,32s-8.52,15,34.4,19.85C416.05,448.28,476.88,406.58,472.87,332.42Z" style="fill:#fff;opacity:0.8"></path></g></g><g id="freepik--Character--inject-422"><g id="freepik--Motorcycle--inject-422"><g id="freepik--Leg--inject-422"><path d="M221,205.35s-19.32,16-32,26.26c-10.73,8.7-22.73,17.66-13.12,28s87.17-16,87.17-16-.82-9.64-13.94-21A110.73,110.73,0,0,0,221,205.35Z" style="fill:#37474f"></path><path d="M209.56,214.79h0l-7.35,6c-1.18,3.55-1.61,7.86-1.24,14.81C202.23,227.51,205.21,218.39,209.56,214.79Z" style="fill:#92E3A9"></path><path d="M235.43,237.19c-4.34-2.77-7-7.86-7.09-11.37,0,0-.21,5.67,1.56,9.29,0,0-8.19,2.48-11.83,4.54s-41.74,5.28-41.74,5.28-6.53,5.2-.48,13.41a10.39,10.39,0,0,0,5.72,3.43c9.48,1.15,27.53-2.64,44.25-7C231.22,247.57,235.43,237.19,235.43,237.19Z" style="fill:#263238"></path></g><g id="freepik--Bike--inject-422"><path d="M307.06,282.45c0,4.18,1.44,7.13,3.79,8.55.73.44,1.31.72,2,1.1a7,7,0,0,0,4.35,1h.06a7.93,7.93,0,0,0,1-.14l.3,0c.24-.05.5-.14.75-.21l.54-.15c.18-.06.37-.15.55-.22s.52-.19.79-.32c.45-.2.91-.44,1.37-.7,7.37-4.27,13.36-14.62,13.36-23.14,0-.51,0-1-.07-1.48,0-.17,0-.33-.07-.49s-.07-.59-.12-.87-.09-.39-.14-.58a6.36,6.36,0,0,0-.17-.66c-.06-.21-.14-.41-.21-.61s-.13-.34-.2-.5-.2-.42-.3-.62l-.2-.36c-.13-.21-.27-.41-.41-.61l-.18-.24a7.29,7.29,0,0,0-.53-.58l-.14-.14c-.21-.19-.42-.37-.65-.54l0,0-.09-.06a5.8,5.8,0,0,0-.52-.34c-.65-.38-1.26-.66-1.76-1-2.43-1.53-5.84-1.4-9.63.8C313,263.58,307.06,273.94,307.06,282.45Z" style="fill:#455a64"></path><path d="M309.13,283.61c0,8.52,6,12,13.35,7.72s13.36-14.62,13.36-23.14-6-12-13.36-7.71S309.13,275.1,309.13,283.61Z" style="fill:#263238"></path><path d="M322.48,280.62c-2.26,1.3-4.09.25-4.09-2.36a9,9,0,0,1,4.09-7.07c2.25-1.31,4.08-.25,4.08,2.35A9,9,0,0,1,322.48,280.62Z" style="fill:#455a64"></path><path d="M371.08,224.15a36.33,36.33,0,0,0-24.74-13.42,26.48,26.48,0,0,0-3.24-.19l-.55,0h0c-6.27.09-13.31,2.16-20.76,6.46l-3,1.75c-26.21,15.13-47.45,51.93-47.45,82.2v6.89a35.51,35.51,0,0,0,5.24,18.61c.26.42.53.83.8,1.24l.08.12c.24.35.48.69.73,1A35.55,35.55,0,0,0,303,343.22l.27,0,.53.05c.35.05.7.07,1.05.09h.4c.4,0,.81,0,1.22,0h.43c6.28-.09,13.31-2.16,20.76-6.46l3-1.75c26.22-15.13,47.45-51.93,47.45-82.2C378.24,241,376.64,230.6,371.08,224.15ZM329.19,325.81c-22.13,12.78-40.07,2.42-40.07-23.13s17.94-56.62,40.07-69.39,40.07-2.43,40.07,23.13S351.32,313,329.19,325.81Z" style="fill:#263238"></path><path d="M364,218.66c-8.8-4.81-20.31-4-33.28,3.47l-3,1.75c-26.2,15.13-47.45,51.93-47.45,82.2v3.49c0,15,5.19,25.52,13.62,30.55a25.92,25.92,0,0,0,12.64,3.33c6.38,0,13.57-2.09,21.19-6.48l3-1.75c26.22-15.13,47.45-51.74,47.45-82.2C378.15,230.69,372.79,223.46,364,218.66ZM329.19,325.81c-22.13,12.78-40.07,2.42-40.07-23.13s17.94-56.62,40.07-69.39,40.07-2.43,40.07,23.13S351.32,313,329.19,325.81Z" style="fill:#37474f"></path><path d="M299.39,319.26c6.34,7.54,17.32,8.61,29.8,1.41,19.67-11.35,35.62-39,35.62-61.68,0-10.15-3.19-17.6-8.47-21.74,3.68,4.35,5.81,10.85,5.81,19.17,0,22.71-15.94,50.32-35.61,61.69C315.67,324.39,305.92,324.38,299.39,319.26Z" style="fill:#92E3A9"></path><path d="M299.39,319.26c6.34,7.54,17.32,8.61,29.8,1.41,19.67-11.35,35.62-39,35.62-61.68,0-10.15-3.19-17.6-8.47-21.74,3.68,4.35,5.81,10.85,5.81,19.17,0,22.71-15.94,50.32-35.61,61.69C315.67,324.39,305.92,324.38,299.39,319.26Z" style="opacity:0.4"></path><path d="M289.13,302.68c0,25.55,17.94,35.91,40.06,23.13s40.07-43.84,40.07-69.39-17.94-35.91-40.07-23.13S289.13,277.13,289.13,302.68Zm4.45-2.57c0-22.71,15.94-50.33,35.61-61.68S364.8,236.28,364.8,259s-15.94,50.33-35.61,61.68S293.58,322.82,293.58,300.11Z" style="fill:#92E3A9"></path><path d="M289.13,302.68c0,25.55,17.94,35.91,40.06,23.13s40.07-43.84,40.07-69.39-17.94-35.91-40.07-23.13S289.13,277.13,289.13,302.68Zm4.45-2.57c0-22.71,15.94-50.33,35.61-61.68S364.8,236.28,364.8,259s-15.94,50.33-35.61,61.68S293.58,322.82,293.58,300.11Z" style="fill:#fff;opacity:0.15"></path><path d="M364.8,259.1V259c0-.33,0-.64,0-1L341.5,276.89a.44.44,0,0,0-.16.34.43.43,0,0,0,.17.33L357.1,289c.13-.26.26-.51.38-.77l-15-11Z" style="fill:#ebebeb"></path><path d="M319.14,276.63a.42.42,0,0,0,.23-.55l-8.58-21,15.78,11.53a.43.43,0,0,0,.66-.24l7.94-30.19.19,26.42a.43.43,0,0,0,.29.39.41.41,0,0,0,.47-.14l19.94-25.28-14.75,29.15a.41.41,0,0,0,.07.47.42.42,0,0,0,.47.11l22.93-9.39c0-.3,0-.61,0-.9l-22.18,9.08,14.34-28.37c-.41-.35-.83-.69-1.27-1L336.2,261.42,336,235.25c-.54.19-1.08.4-1.62.62l-7.82,29.72L311.25,254.4c-.37.46-.73.92-1.09,1.39L318.43,276l-22.85,9.36c-.09.34-.17.68-.26,1Z" style="fill:#ebebeb"></path><path d="M336,288.24a.45.45,0,0,0-.31.11.48.48,0,0,0-.13.31l.2,27.4-8.33-20.32a.42.42,0,0,0-.76,0L311.8,325.07l7.73-29.4a.43.43,0,0,0-.18-.47.46.46,0,0,0-.23-.06.41.41,0,0,0-.26.09l-22.8,18.46,20.21-25.64a.42.42,0,0,0,.06-.43.43.43,0,0,0-.37-.25l-20.66-.89c-.07.28-.13.55-.2.83l20,.87-19.42,24.64c.22.58.45,1.15.71,1.7l22-17.82-7.55,28.69q.82.09,1.68.12L327,296.92l8.11,19.77c.5-.39,1-.78,1.49-1.19l-.19-26.4,20.21.87c.14-.28.27-.55.4-.83Z" style="fill:#ebebeb"></path><path d="M332.23,292.17a.42.42,0,0,0-.25.3l-7.42,30.11-.75-26.09a.43.43,0,0,0-.29-.39l-.13,0a.44.44,0,0,0-.34.16L303.39,321.9l14.31-29.27a.43.43,0,0,0-.07-.48.45.45,0,0,0-.48-.09L293.94,302.2l23.36-19.58a.41.41,0,0,0,.15-.35.38.38,0,0,0-.18-.32L301,271.06l21.66.17h0a.43.43,0,0,0,.3-.13.39.39,0,0,0,.12-.31l-.77-27.08,8.87,19.81a.4.4,0,0,0,.37.25h0a.42.42,0,0,0,.38-.24L346.37,234l-7.21,29.3a.41.41,0,0,0,.19.46.42.42,0,0,0,.49,0L362.18,245l-.36-.8-21.53,18,7-28.57c-.55-.06-1.11-.09-1.68-.11l-14.07,28.77-8.76-19.57-1.35,1.09.76,26.51-21-.17c-.25.51-.49,1-.73,1.54l15.82,10.58-22.72,19.05c0,.63,0,1.24.09,1.85l22.74-9.94-14.07,28.78c.42.31.84.6,1.29.87L323,297.7l.73,25.64c.56-.22,1.12-.46,1.69-.72l7.23-29.37,15.4,10.29.51-.67-15.94-10.65A.45.45,0,0,0,332.23,292.17Zm11.57-21.62L362.6,246c-.12-.31-.25-.6-.37-.89l-19.62,25.59a.45.45,0,0,0,0,.45.42.42,0,0,0,.38.23l20.38.17.18-.84Zm-4.08,11.78a.42.42,0,0,0,0,.33l9,20,.58-.78-8.6-19.22L363,272.94c.09-.35.17-.69.25-1L339.94,282.1A.41.41,0,0,0,339.72,282.33Z" style="fill:#fafafa"></path><path d="M313.77,286.1c0,4.17,1.45,7.13,3.79,8.55.74.43,1.31.71,2,1.09a6.87,6.87,0,0,0,4.35,1h.07a8.07,8.07,0,0,0,.95-.14l.3,0,.76-.21.54-.15L327,296c.26-.1.53-.19.79-.32a13.8,13.8,0,0,0,1.37-.71c7.38-4.26,13.36-14.62,13.36-23.13a14.12,14.12,0,0,0-.07-1.48c0-.17,0-.33-.06-.5s-.07-.59-.13-.87-.09-.38-.13-.58-.11-.44-.17-.65-.14-.41-.22-.61-.12-.34-.19-.5-.2-.42-.31-.62-.13-.25-.2-.36a5.41,5.41,0,0,0-.41-.61l-.18-.24a7.31,7.31,0,0,0-.52-.59l-.14-.13a5.56,5.56,0,0,0-.66-.54l0,0-.09,0a5.8,5.8,0,0,0-.52-.34c-.64-.38-1.26-.66-1.76-1-2.43-1.52-5.84-1.39-9.63.8C319.75,267.23,313.77,277.58,313.77,286.1Z" style="fill:#455a64"></path><path d="M315.84,287.26c0,8.51,6,12,13.35,7.71s13.36-14.62,13.36-23.13-6-12-13.36-7.72S315.84,278.74,315.84,287.26Z" style="fill:#263238"></path><path d="M329.19,284.27c-2.25,1.3-4.08.24-4.08-2.36a9.05,9.05,0,0,1,4.08-7.08c2.26-1.3,4.09-.24,4.09,2.36A9,9,0,0,1,329.19,284.27Z" style="fill:#455a64"></path><path d="M324.36,281.9a3.09,3.09,0,0,0,1.26,2.82c.24.15,2.34,1.33,2.56,1.46a2.29,2.29,0,0,0,1.44.34h0l.32,0,.1,0a1.36,1.36,0,0,0,.25-.07.7.7,0,0,0,.18-.05l.17-.07.27-.1.45-.24a9.76,9.76,0,0,0,4.42-7.65c0-.17,0-.33,0-.49a1,1,0,0,1,0-.16c0-.1,0-.2-.05-.29s0-.13,0-.19a1.41,1.41,0,0,0-.06-.22,1.18,1.18,0,0,0-.07-.2l-.06-.17-.1-.2a.75.75,0,0,1-.07-.12l-.13-.2-.06-.08-.18-.2,0,0a1.74,1.74,0,0,0-.22-.18h0l0,0-.17-.11L332,274a3.05,3.05,0,0,0-3.19.26A9.78,9.78,0,0,0,324.36,281.9Z" style="fill:#455a64"></path><path d="M327,283.37c0,2.82,2,4,4.42,2.55a9.76,9.76,0,0,0,4.42-7.65c0-2.82-2-4-4.42-2.55A9.76,9.76,0,0,0,327,283.37Z" style="fill:#37474f"></path><path d="M331.38,282.38c-.75.43-1.35.08-1.35-.78a3,3,0,0,1,1.35-2.34c.75-.43,1.35-.08,1.35.78A3,3,0,0,1,331.38,282.38Z" style="fill:#455a64"></path></g><g id="freepik--Motor--inject-422"><path d="M213,324.09a7.87,7.87,0,0,1-5.68-2.42l-17.79-18.49a7.79,7.79,0,0,1-2.06-4l-4.13-21.81,2.21-.42,4.13,21.81a5.55,5.55,0,0,0,1.47,2.85L209,320.11a5.6,5.6,0,0,0,6.86,1l35.63-20.57a20.48,20.48,0,0,0,8-8.34L283.94,245l2,1-24.49,47.14a22.78,22.78,0,0,1-8.85,9.25L217,323A7.83,7.83,0,0,1,213,324.09Z" style="fill:#e0e0e0"></path><path d="M213,324.09a7.87,7.87,0,0,1-5.68-2.42l-17.79-18.49a7.79,7.79,0,0,1-2.06-4l-4.13-21.81,2.21-.42,4.13,21.81a5.55,5.55,0,0,0,1.47,2.85L209,320.11a5.6,5.6,0,0,0,6.86,1l35.63-20.57a20.48,20.48,0,0,0,8-8.34L283.94,245l2,1-24.49,47.14a22.78,22.78,0,0,1-8.85,9.25L217,323A7.83,7.83,0,0,1,213,324.09Z" style="opacity:0.30000000000000004"></path><path d="M282.61,282.26l-8.89,18.86a20.91,20.91,0,0,1-7.27,7.9l-26.84,15.47a10.8,10.8,0,0,1-9.75,0l-4-2.29a40.35,40.35,0,0,1-8.56-7.07l-1.77-2.05a17.42,17.42,0,0,1-3.68-9.87v-15a10.78,10.78,0,0,1,4.86-8.44l31.43-18.21a10.75,10.75,0,0,1,9.74,0l22.21,12.83A6.23,6.23,0,0,1,282.61,282.26Z" style="fill:#e0e0e0"></path><path d="M283.15,279.63c-.38-1-1.59-1.4-3.4-.94L240.19,289a7.23,7.23,0,0,0-3.68,2.45l-19.95-11.51a2.31,2.31,0,0,1,.19-.14l31.43-18.21a10.72,10.72,0,0,1,9.74,0l22.21,12.82A6.16,6.16,0,0,1,283.15,279.63Z" style="opacity:0.2"></path><path d="M239.61,324.49,266.42,309a21.28,21.28,0,0,0,7.31-7.88l9-18.77c1.35-2.8,0-4.43-3-3.66L240.18,289a7.65,7.65,0,0,0-5.44,7v25.68C234.74,324.78,236.92,326,239.61,324.49Z" style="opacity:0.1"></path><path d="M238,300.79a3.62,3.62,0,0,0,1.47,3.3c.28.17,1.17.64,1.42.78a2.62,2.62,0,0,0,1.68.4h0l.37-.06h.11l.29-.08.21-.06.21-.09.31-.12.53-.27a11.42,11.42,0,0,0,5.16-8.94,5.49,5.49,0,0,0,0-.58,1.37,1.37,0,0,0,0-.19c0-.11,0-.23,0-.33a1.89,1.89,0,0,1-.05-.23,2.33,2.33,0,0,0-.07-.25,2.25,2.25,0,0,0-.08-.24c0-.06,0-.13-.08-.19a1.34,1.34,0,0,0-.12-.24c0-.05-.05-.09-.07-.14l-.16-.23a.86.86,0,0,0-.07-.1,2.09,2.09,0,0,0-.2-.22l-.06-.05a1.64,1.64,0,0,0-.25-.21h0l0,0a1.32,1.32,0,0,0-.2-.12c-.25-.15-1.15-.62-1.34-.74a3.57,3.57,0,0,0-3.73.31A11.42,11.42,0,0,0,238,300.79Z" style="fill:#e0e0e0"></path><path d="M238,300.79a3.62,3.62,0,0,0,1.47,3.3c.28.17,1.17.64,1.42.78a2.62,2.62,0,0,0,1.68.4h0l.37-.06h.11l.29-.08.21-.06.21-.09.31-.12.53-.27a11.42,11.42,0,0,0,5.16-8.94,5.49,5.49,0,0,0,0-.58,1.37,1.37,0,0,0,0-.19c0-.11,0-.23,0-.33a1.89,1.89,0,0,1-.05-.23,2.33,2.33,0,0,0-.07-.25,2.25,2.25,0,0,0-.08-.24c0-.06,0-.13-.08-.19a1.34,1.34,0,0,0-.12-.24c0-.05-.05-.09-.07-.14l-.16-.23a.86.86,0,0,0-.07-.1,2.09,2.09,0,0,0-.2-.22l-.06-.05a1.64,1.64,0,0,0-.25-.21h0l0,0a1.32,1.32,0,0,0-.2-.12c-.25-.15-1.15-.62-1.34-.74a3.57,3.57,0,0,0-3.73.31A11.42,11.42,0,0,0,238,300.79Z" style="opacity:0.30000000000000004"></path><path d="M239.46,301.6c0,3.29,2.31,4.62,5.16,3a11.42,11.42,0,0,0,5.16-8.94c0-3.29-2.31-4.63-5.16-3A11.39,11.39,0,0,0,239.46,301.6Z" style="fill:#e0e0e0"></path><path d="M239.46,301.6c0,3.29,2.31,4.62,5.16,3a11.42,11.42,0,0,0,5.16-8.94c0-3.29-2.31-4.63-5.16-3A11.39,11.39,0,0,0,239.46,301.6Z" style="opacity:0.15"></path><path d="M244.62,302.26c-1.75,1-3.16.19-3.16-1.82a7,7,0,0,1,3.16-5.47c1.74-1,3.15-.19,3.15,1.82A7,7,0,0,1,244.62,302.26Z" style="fill:#e0e0e0"></path><path d="M244.62,302.26c-1.75,1-3.16.19-3.16-1.82a7,7,0,0,1,3.16-5.47c1.74-1,3.15-.19,3.15,1.82A7,7,0,0,1,244.62,302.26Z" style="opacity:0.30000000000000004"></path><path d="M243.42,301.4a7,7,0,0,0,3.16-5.47,2.88,2.88,0,0,0-.3-1.36,2.61,2.61,0,0,0-1.66.4,7,7,0,0,0-3.16,5.47,2.88,2.88,0,0,0,.3,1.36A2.62,2.62,0,0,0,243.42,301.4Z" style="opacity:0.30000000000000004"></path><path d="M260.85,301.56a3.64,3.64,0,0,0,1.46,3.31c.28.17,1.17.63,1.42.78a2.68,2.68,0,0,0,1.68.39h0l.37-.05.11,0,.3-.08.2-.06.21-.08.31-.12a5.48,5.48,0,0,0,.53-.28,11.42,11.42,0,0,0,5.16-8.94c0-.2,0-.39,0-.57l0-.19c0-.12,0-.23-.05-.34a1.42,1.42,0,0,0,0-.22,2.5,2.5,0,0,0-.07-.26,2.09,2.09,0,0,0-.08-.23c0-.07-.05-.13-.07-.19a2.68,2.68,0,0,0-.12-.24c0-.05-.05-.1-.08-.14a2,2,0,0,0-.16-.24l-.07-.09a2.2,2.2,0,0,0-.2-.23l-.05-.05-.26-.21h0l0,0-.2-.13c-.25-.15-1.16-.61-1.35-.74a3.6,3.6,0,0,0-3.72.31A11.42,11.42,0,0,0,260.85,301.56Z" style="fill:#e0e0e0"></path><path d="M260.85,301.56a3.64,3.64,0,0,0,1.46,3.31c.28.17,1.17.63,1.42.78a2.68,2.68,0,0,0,1.68.39h0l.37-.05.11,0,.3-.08.2-.06.21-.08.31-.12a5.48,5.48,0,0,0,.53-.28,11.42,11.42,0,0,0,5.16-8.94c0-.2,0-.39,0-.57l0-.19c0-.12,0-.23-.05-.34a1.42,1.42,0,0,0,0-.22,2.5,2.5,0,0,0-.07-.26,2.09,2.09,0,0,0-.08-.23c0-.07-.05-.13-.07-.19a2.68,2.68,0,0,0-.12-.24c0-.05-.05-.1-.08-.14a2,2,0,0,0-.16-.24l-.07-.09a2.2,2.2,0,0,0-.2-.23l-.05-.05-.26-.21h0l0,0-.2-.13c-.25-.15-1.16-.61-1.35-.74a3.6,3.6,0,0,0-3.72.31A11.42,11.42,0,0,0,260.85,301.56Z" style="opacity:0.30000000000000004"></path><path d="M262.31,302.37c0,3.29,2.31,4.63,5.16,3a11.42,11.42,0,0,0,5.16-8.94c0-3.29-2.31-4.62-5.16-3A11.42,11.42,0,0,0,262.31,302.37Z" style="fill:#e0e0e0"></path><path d="M262.31,302.37c0,3.29,2.31,4.63,5.16,3a11.42,11.42,0,0,0,5.16-8.94c0-3.29-2.31-4.62-5.16-3A11.42,11.42,0,0,0,262.31,302.37Z" style="opacity:0.15"></path><path d="M267.47,303c-1.74,1-3.16.19-3.16-1.83a7,7,0,0,1,3.16-5.46c1.74-1,3.16-.19,3.16,1.82A7,7,0,0,1,267.47,303Z" style="fill:#e0e0e0"></path><path d="M267.47,303c-1.74,1-3.16.19-3.16-1.83a7,7,0,0,1,3.16-5.46c1.74-1,3.16-.19,3.16,1.82A7,7,0,0,1,267.47,303Z" style="opacity:0.30000000000000004"></path><path d="M266.27,302.17a7,7,0,0,0,3.16-5.47,2.88,2.88,0,0,0-.3-1.36,2.63,2.63,0,0,0-1.66.41,7,7,0,0,0-3.16,5.46,3,3,0,0,0,.3,1.36A2.61,2.61,0,0,0,266.27,302.17Z" style="opacity:0.30000000000000004"></path><path d="M236.88,311.78a1.92,1.92,0,0,0,.77,1.75c.15.09,1.17.62,1.3.7a1.46,1.46,0,0,0,.89.21h0l.2,0h.06l.15,0,.11,0,.11,0,.17-.06.27-.15a6,6,0,0,0,2.73-4.72c0-.11,0-.21,0-.31s0-.06,0-.1l0-.17,0-.12,0-.14,0-.12a.3.3,0,0,0,0-.1l-.06-.13a.43.43,0,0,0,0-.07l-.08-.13,0,0-.11-.12,0,0a.69.69,0,0,0-.13-.11h0l-.11-.07c-.13-.08-1.16-.61-1.26-.67a1.88,1.88,0,0,0-2,.16A6,6,0,0,0,236.88,311.78Z" style="fill:#e0e0e0"></path><path d="M236.88,311.78a1.92,1.92,0,0,0,.77,1.75c.15.09,1.17.62,1.3.7a1.46,1.46,0,0,0,.89.21h0l.2,0h.06l.15,0,.11,0,.11,0,.17-.06.27-.15a6,6,0,0,0,2.73-4.72c0-.11,0-.21,0-.31s0-.06,0-.1l0-.17,0-.12,0-.14,0-.12a.3.3,0,0,0,0-.1l-.06-.13a.43.43,0,0,0,0-.07l-.08-.13,0,0-.11-.12,0,0a.69.69,0,0,0-.13-.11h0l-.11-.07c-.13-.08-1.16-.61-1.26-.67a1.88,1.88,0,0,0-2,.16A6,6,0,0,0,236.88,311.78Z" style="opacity:0.30000000000000004"></path><path d="M238.2,312.5c0,1.73,1.22,2.44,2.72,1.57a6,6,0,0,0,2.73-4.72c0-1.74-1.22-2.45-2.73-1.58A6,6,0,0,0,238.2,312.5Z" style="fill:#e0e0e0"></path><path d="M238.2,312.5c0,1.73,1.22,2.44,2.72,1.57a6,6,0,0,0,2.73-4.72c0-1.74-1.22-2.45-2.73-1.58A6,6,0,0,0,238.2,312.5Z" style="opacity:0.15"></path><path d="M240.92,312.85c-.92.53-1.66.1-1.66-1a3.7,3.7,0,0,1,1.66-2.89c.93-.53,1.67-.1,1.67,1A3.67,3.67,0,0,1,240.92,312.85Z" style="fill:#e0e0e0"></path><path d="M240.92,312.85c-.92.53-1.66.1-1.66-1a3.7,3.7,0,0,1,1.66-2.89c.93-.53,1.67-.1,1.67,1A3.67,3.67,0,0,1,240.92,312.85Z" style="opacity:0.30000000000000004"></path><path d="M241.93,309.39a1.58,1.58,0,0,0-.11-.61,1.41,1.41,0,0,0-.9.21,3.7,3.7,0,0,0-1.66,2.89,1.58,1.58,0,0,0,.11.61,1.38,1.38,0,0,0,.89-.21A3.67,3.67,0,0,0,241.93,309.39Z" style="opacity:0.30000000000000004"></path><path d="M234.74,300.92l22.85-13.2s16.16,1.82,21.42,2.19l3.6-7.65a6.23,6.23,0,0,0-2.48-7.9L259.2,262.27,247.31,262l-30.56,17.71a10.83,10.83,0,0,0-4.83,8Z" style="opacity:0.30000000000000004"></path><path d="M231.36,334.61a7.86,7.86,0,0,1-5.67-2.42L207.9,313.7a7.79,7.79,0,0,1-2.06-4l-4.13-21.81,2.21-.41,4.13,21.8a5.58,5.58,0,0,0,1.47,2.86l17.79,18.49a5.61,5.61,0,0,0,6.87,1L269.81,311a20.54,20.54,0,0,0,8-8.34l24.49-47.15,2,1-24.49,47.14a22.87,22.87,0,0,1-8.85,9.26L235.3,333.55A7.87,7.87,0,0,1,231.36,334.61Z" style="fill:#fafafa"></path><path d="M329.89,230.21l-7-5.94,14.55-17h0a2.23,2.23,0,0,1,2.25-.58,7.16,7.16,0,0,1,4.93,4.2,2.31,2.31,0,0,1-.17,2.25h0l0,0h0Z" style="fill:#e0e0e0"></path><path d="M329.89,230.21l-7-5.94,14.55-17h0a2.23,2.23,0,0,1,2.25-.58,7.16,7.16,0,0,1,4.93,4.2,2.31,2.31,0,0,1-.17,2.25h0l0,0h0Z" style="opacity:0.2"></path><path d="M330.08,227.92c.69,2-.4,3.22-2.43,2.84a7.16,7.16,0,0,1-4.93-4.2c-.68-1.95.4-3.23,2.43-2.85A7.15,7.15,0,0,1,330.08,227.92Z" style="fill:#e0e0e0"></path><path d="M330.08,227.92c.69,2-.4,3.22-2.43,2.84a7.16,7.16,0,0,1-4.93-4.2c-.68-1.95.4-3.23,2.43-2.85A7.15,7.15,0,0,1,330.08,227.92Z" style="opacity:0.30000000000000004"></path><path d="M309,261.18l-13.53-11.54,28.24-33.06h0c.85-1,2.37-1.51,4.38-1.13a13.89,13.89,0,0,1,9.56,8.16c.65,1.84.47,3.36-.33,4.36h0l-.07.07v0Z" style="fill:#e0e0e0"></path><path d="M309.39,256.74c1.34,3.77-.78,6.24-4.72,5.51a13.89,13.89,0,0,1-9.56-8.16c-1.33-3.78.78-6.25,4.72-5.52A13.9,13.9,0,0,1,309.39,256.74Z" style="fill:#e0e0e0"></path><path d="M309.39,256.74c1.34,3.77-.78,6.24-4.72,5.51a13.89,13.89,0,0,1-9.56-8.16c-1.33-3.78.78-6.25,4.72-5.52A13.9,13.9,0,0,1,309.39,256.74Z" style="opacity:0.30000000000000004"></path><path d="M302.35,255.49l31.87-36.78-1.15-1,8.16-10.59a5.58,5.58,0,0,0-1.5-.52,2.23,2.23,0,0,0-2.25.58h0L330,216a9.47,9.47,0,0,0-1.85-.55c-2-.38-3.53.09-4.38,1.13h0l-28.24,33.06Z" style="opacity:0.2"></path><path d="M336.4,274.46c0,6.18-5.21,12.73-11.6,14.61l-56.68,16.61a1.15,1.15,0,0,1-1-.15l.31-.17a9.67,9.67,0,0,0,2.88-2.67l53.81-15.78c5.51-1.61,10-7.19,10-12.45a5.61,5.61,0,0,0-2.23-4.91c-1.64-1.09-4-1.1-6.58,0l-55.18,23.24-1.82.76a1.1,1.1,0,0,1-.94,0,1.14,1.14,0,0,1-.53-.57,1.1,1.1,0,0,1-.09-.42,1.14,1.14,0,0,1,.7-1.05l57-24c3.24-1.37,6.41-1.28,8.69.23A7.78,7.78,0,0,1,336.4,274.46Z" style="fill:#e0e0e0"></path><g style="opacity:0.30000000000000004"><path d="M336.4,274.46c0,6.18-5.21,12.73-11.6,14.61l-56.68,16.61a1.15,1.15,0,0,1-1-.15l.31-.17a9.67,9.67,0,0,0,2.88-2.67l53.81-15.78c5.51-1.61,10-7.19,10-12.45a5.61,5.61,0,0,0-2.23-4.91c-1.64-1.09-4-1.1-6.58,0l-55.18,23.24-1.82.76a1.1,1.1,0,0,1-.94,0,1.14,1.14,0,0,1-.53-.57,1.1,1.1,0,0,1-.09-.42,1.14,1.14,0,0,1,.7-1.05l57-24c3.24-1.37,6.41-1.28,8.69.23A7.78,7.78,0,0,1,336.4,274.46Z"></path></g><path d="M314.51,280.48c-1.76,7.16-.24,12.18,3.05,14.17.74.43,1.31.71,2,1.09a6.87,6.87,0,0,0,4.35,1h.07a8.07,8.07,0,0,0,.95-.14l.3,0,.76-.21.54-.15L327,296c.26-.1.53-.19.79-.32a13.8,13.8,0,0,0,1.37-.71c7.38-4.26,13.36-14.62,13.36-23.13a14.12,14.12,0,0,0-.07-1.48c0-.17,0-.33-.06-.5s-.07-.59-.13-.87-.09-.38-.13-.58-.11-.44-.17-.65-.14-.41-.22-.61-.12-.34-.19-.5-.2-.42-.31-.62-.13-.25-.2-.36a5.41,5.41,0,0,0-.41-.61l-.18-.24a7.31,7.31,0,0,0-.52-.59l-.14-.13a5.56,5.56,0,0,0-.66-.54l0,0-.09,0a5.8,5.8,0,0,0-.52-.34c-.64-.38-1.26-.66-1.76-1-3.31-2.07-8.44-1.08-13.88,4A29.24,29.24,0,0,0,314.51,280.48Z" style="fill:#455a64"></path><path d="M315.84,287.26c0,8.51,6,12,13.35,7.71s13.36-14.62,13.36-23.13-6-12-13.36-7.72S315.84,278.74,315.84,287.26Z" style="fill:#37474f"></path><path d="M330.77,283c-3.45,3.5-6.67,1.64-5.37-3.1a8.92,8.92,0,0,1,2.21-3.82c3.46-3.5,6.67-1.64,5.37,3.1A8.82,8.82,0,0,1,330.77,283Z" style="fill:#455a64"></path><path d="M324.7,279.69c-.72,2.56-.22,4.35.92,5,.24.15,2.34,1.33,2.56,1.46a2.29,2.29,0,0,0,1.44.34h0l.32,0,.1,0a1.36,1.36,0,0,0,.25-.07.7.7,0,0,0,.18-.05l.17-.07.27-.1a7.22,7.22,0,0,0,2.26-1.73,10.22,10.22,0,0,0,2.17-3.73,7.19,7.19,0,0,0,.42-2.92,1,1,0,0,1,0-.16c0-.1,0-.2-.05-.29s0-.13,0-.19a1.41,1.41,0,0,0-.06-.22,1.18,1.18,0,0,0-.07-.2l-.06-.17-.1-.2a.75.75,0,0,1-.07-.12l-.13-.2-.06-.08-.18-.2,0,0a1.74,1.74,0,0,0-.22-.18h0l0,0-.17-.11L332,274c-1.15-.72-3-.33-4.86,1.58A9.51,9.51,0,0,0,324.7,279.69Z" style="fill:#455a64"></path><path d="M327.29,281.19c-1.42,5.14,2,7.16,5.79,3.39a9.51,9.51,0,0,0,2.39-4.13c1.43-5.14-2.05-7.16-5.79-3.39A9.57,9.57,0,0,0,327.29,281.19Z" style="fill:#263238"></path><path d="M331.38,282.38c-.75.43-1.35.08-1.35-.78a3,3,0,0,1,1.35-2.34c.75-.43,1.35-.08,1.35.78A3,3,0,0,1,331.38,282.38Z" style="fill:#455a64"></path></g><polygon points="344.41 184.82 380.97 205.93 361 185.57 344.41 184.82" style="fill:#92E3A9"></polygon><polyline points="361 185.57 344.41 184.82 380.97 205.93" style="opacity:0.5"></polyline><path d="M179.88,279.8l19.55,11.28a9,9,0,0,0,7,.86l31.14-9a9.15,9.15,0,0,1,3.53-.3l38.9,4.5a9,9,0,0,0,8.12-3.38l19.73-25.07V242.87l36.33-47.19a1.89,1.89,0,0,1,.56-.49L357,188.12a1.89,1.89,0,0,1,2.15.17L381,205.93,362.9,185.07a1.94,1.94,0,0,0-.49-.41l-22.14-12.78a1.9,1.9,0,0,0-1.95,0l-16.76,10.28-50.27,39.57v15.83L179.88,259Z" style="fill:#92E3A9"></path><path d="M179.88,279.8l19.55,11.28a9,9,0,0,0,7,.86l31.14-9a9.15,9.15,0,0,1,3.53-.3l38.9,4.5a9,9,0,0,0,8.12-3.38l19.73-25.07V242.87l36.33-47.19a1.89,1.89,0,0,1,.56-.49L357,188.12a1.89,1.89,0,0,1,2.15.17L381,205.93,362.9,185.07a1.94,1.94,0,0,0-.49-.41l-22.14-12.78a1.9,1.9,0,0,0-1.95,0l-16.76,10.28-50.27,39.57v15.83L179.88,259Z" style="opacity:0.1"></path><path d="M315.27,231.32,306,242.46s.18,16.07,0,15.57-1.2-16.94-1.2-16.94Z" style="fill:#fff;opacity:0.30000000000000004"></path><path d="M358.34,182.31l-14.14-8.16a9.51,9.51,0,0,0-9.74.13l-12.9,7.91-50.27,39.57v15.83l-75.76,17.76,3.73,12s36.27,4,45.18,1.54,39.74-17.81,44-21.43,27.64-26.25,37.67-36.29,15.21-14.06,15.21-19.79C341.34,188.33,348.18,182.85,358.34,182.31Z" style="opacity:0.1"></path><path d="M252.56,279.54c14.16,2.91,25.62,5.07,28.07,5.55s4.58.33,7.23-3.31S299.39,267,299.39,267s-10.07,11.17-13.25,14.23-5.22,2.63-12,1.39S252.56,279.54,252.56,279.54Z" style="fill:#fff;opacity:0.30000000000000004"></path><polygon points="312.42 166.36 339.84 182.19 358.12 155.8 344.41 147.89 312.42 166.36" style="fill:#92E3A9"></polygon><polygon points="312.42 166.36 339.84 182.19 358.12 155.8 344.41 147.89 312.42 166.36" style="fill:#fff;opacity:0.5"></polygon><polygon points="339.84 187.46 339.84 182.19 358.12 155.8 358.12 161.08 339.84 187.46" style="fill:#92E3A9"></polygon><polygon points="339.84 187.46 339.84 182.19 358.12 155.8 358.12 161.08 339.84 187.46" style="fill:#fff;opacity:0.30000000000000004"></polygon><polygon points="312.42 166.36 312.42 171.63 339.84 187.46 339.84 182.19 312.42 166.36" style="fill:#92E3A9"></polygon><path d="M338.32,182.65a2.61,2.61,0,0,0-1.4-2.15L315.35,168a4.55,4.55,0,0,0-5.27.75l-18.17,18.88a2.77,2.77,0,0,0-.82,1.9c0,.86,0,9.91,0,10.56a2.59,2.59,0,0,0,1.41,2.21l21.57,12.46a4.53,4.53,0,0,0,5.26-.74l18.17-18.89a2.7,2.7,0,0,0,.82-1.83C338.34,192.45,338.34,183.32,338.32,182.65Z" style="fill:#37474f"></path><path d="M316.57,204.75V215.3a4.3,4.3,0,0,1-2.5-.5L292.5,202.34a2.58,2.58,0,0,1-1.41-2.22V189.57a2.58,2.58,0,0,0,1.41,2.22l21.57,12.45A4.23,4.23,0,0,0,316.57,204.75Z" style="fill:#263238"></path><path d="M310.08,168.79l-18.17,18.88a2.52,2.52,0,0,0,.59,4.12l21.57,12.46a4.53,4.53,0,0,0,5.26-.75l18.17-18.88a2.52,2.52,0,0,0-.58-4.12L315.35,168A4.55,4.55,0,0,0,310.08,168.79Z" style="fill:#455a64"></path><path d="M313.34,207.34A4.08,4.08,0,0,0,311.1,204l-17.68-10.21a7.08,7.08,0,0,0-8.55,1.44l-20.06,23.16a4.76,4.76,0,0,0-1.23,3.21c0,1.51,0,9.4,0,10.47A4.55,4.55,0,0,0,266,236l13.11,7.56a8.21,8.21,0,0,0,9-1l23.65-21.47a4.22,4.22,0,0,0,1.54-3.18C313.32,216.63,313.38,208.45,313.34,207.34Z" style="fill:#263238"></path><path d="M284.87,195.23l-20.06,23.15a4.48,4.48,0,0,0,1.19,7.07L279.11,233a8.21,8.21,0,0,0,9-1l23.65-21.46c2.31-2.09,2-5-.7-6.6l-17.68-10.2A7.06,7.06,0,0,0,284.87,195.23Z" style="fill:#455a64"></path><path d="M284,233.87v10.54a7.77,7.77,0,0,1-4.87-.84L266,236a4.57,4.57,0,0,1-2.43-3.94c0-1.07,0-9,0-10.48a4.58,4.58,0,0,0,2.43,3.86l13.1,7.56A7.84,7.84,0,0,0,284,233.87Z" style="fill:#263238"></path><path d="M284.87,195.23l-20.06,23.15a4.48,4.48,0,0,0,1.19,7.07L279.11,233a8.21,8.21,0,0,0,9-1l23.65-21.46c2.31-2.09,2-5-.7-6.6l-17.68-10.2A7.06,7.06,0,0,0,284.87,195.23Z" style="fill:#455a64"></path><path d="M277.58,233.62l-13.11-7.57a12.26,12.26,0,0,0-10-.48l-32.9,15a9.22,9.22,0,0,0-5.12,7.61,10.46,10.46,0,0,0,4.87,8.09l13.1,7.56a12.26,12.26,0,0,0,10,.49l32.91-15a9.2,9.2,0,0,0,5.12-7.6A10.43,10.43,0,0,0,277.58,233.62Z" style="fill:#92E3A9"></path><path d="M277.58,233.62l-13.11-7.57a12.26,12.26,0,0,0-10-.48l-32.9,15a9.22,9.22,0,0,0-5.12,7.61,10.46,10.46,0,0,0,4.87,8.09l13.1,7.56a12.26,12.26,0,0,0,10,.49l32.91-15a9.2,9.2,0,0,0,5.12-7.6A10.43,10.43,0,0,0,277.58,233.62Z" style="opacity:0.4"></path><path d="M239.31,232.47l-17.73,8.07a9.22,9.22,0,0,0-5.12,7.61,10.46,10.46,0,0,0,4.87,8.09l13.1,7.56a11.09,11.09,0,0,0,4.88,1.3Z" style="opacity:0.1"></path><path d="M254.48,225.57l-32.9,15c-2.83,1.29-2.94,3.59-.25,5.14l13.1,7.57a12.26,12.26,0,0,0,10,.48l32.91-15c2.83-1.29,2.94-3.59.25-5.14l-13.11-7.57A12.26,12.26,0,0,0,254.48,225.57Z" style="fill:#92E3A9"></path><path d="M254.48,225.57l-32.9,15c-2.83,1.29-2.94,3.59-.25,5.14l13.1,7.57a12.26,12.26,0,0,0,10,.48l32.91-15c2.83-1.29,2.94-3.59.25-5.14l-13.11-7.57A12.26,12.26,0,0,0,254.48,225.57Z" style="opacity:0.30000000000000004"></path><polygon points="204.49 257.07 237.97 256.83 237.97 267.39 204.49 265.14 204.49 257.07" style="fill:#92E3A9"></polygon><polygon points="204.49 257.07 237.97 256.83 237.97 267.39 204.49 265.14 204.49 257.07" style="fill:#fff;opacity:0.30000000000000004"></polygon><polygon points="237.97 256.83 215.12 243.64 184.47 245.51 204.49 257.07 237.97 256.83" style="fill:#92E3A9"></polygon><polygon points="237.97 256.83 215.12 243.64 184.47 245.51 204.49 257.07 237.97 256.83" style="fill:#fff;opacity:0.5"></polygon><g id="freepik--leg--inject-422"><path d="M274.81,188.07c5.62,15.22,11.12,34.72,6.8,50.21-5.68,20.39-21.25,40.49-24,44.17s-33.26,21.6-34.69,9.47c-1.73-14.74,15.1-54.67,15.1-54.67s-4.9-1.49-12.4,1.46c4.58-7.39,8.22-15.72,9.06-25.56Z" style="fill:#37474f"></path><path d="M222.88,287c-1.56,14.85,6.27,20.46,17.31,19.38,5.43-.53,15.56-3.74,25.64-7.35,14.5-5.19,28.88-11.2,28.88-11.2s6.76-12-1.18-20.35c-13.84,1.86-32.25,1.57-43.93,5.64S222.88,287,222.88,287Z" style="fill:#37474f"></path><path d="M262.09,270.37c-1.63,3.09-8.3,15.06-15.79,19.18,5.87-1.18,15.39-8.89,21.54-19.83C265.89,269.89,264,270.14,262.09,270.37Z" style="fill:#263238"></path><path d="M283.87,310.45a9.4,9.4,0,0,0,8,1.8,22.57,22.57,0,0,0,14.06-8.72c4.08-5.59,3-14,4.37-17.57s4.06-10.13,4.61-13.4,0-6.56-4-8.69Z"></path><path d="M263.37,301.18c-1,.2-1.12-.9-1.12-.9l3.58-1.27c4.64-5.47,1.27-15.37,6-17.44,5.39-2.33,9.86-3.38,11.07-6.64s-.36-6.22-1.44-6.41l-1.37.08s-.17-1.06,2.23-1.29c6-.6,8.84.08,15.43-2.55,3-1.19,3.3-1.45,5.45-2.24,3.86-1.27,8.45.9,9.65,3.88s.94,4.7-.3,9.4c-.85,3.22-3.56,8.52-4.43,11.72-1,3.78-.4,6.57-2,11.29-2.85,8.72-11.93,12.42-19.53,12.41-2.92,0-4.85-1.33-3.6-5.8a102.47,102.47,0,0,1,5.68-14.11Z" style="fill:#263238"></path><path d="M288.79,291.27c4.95-1.59,10.1-3,10.1-3l-11.45,5.9Z"></path><path d="M229.83,230.89c-.27.57-.53,1.13-.81,1.69a13,13,0,0,0,.88,2.53s-1.11.33-2.68.86c-.53.93-1.18,1.89-1.73,2.79A26.24,26.24,0,0,1,236,236.94h0C233.55,235.35,231,233.26,229.83,230.89Z" style="fill:#263238"></path></g><path d="M134.35,379.82a1.67,1.67,0,0,1-1.58-2.27L170.93,275a1.69,1.69,0,0,1,3.17,1.17L135.93,378.72A1.69,1.69,0,0,1,134.35,379.82Z" style="fill:#e0e0e0"></path><path d="M134.35,379.82a1.67,1.67,0,0,1-1.58-2.27L170.93,275a1.69,1.69,0,0,1,3.17,1.17L135.93,378.72A1.69,1.69,0,0,1,134.35,379.82Z" style="opacity:0.30000000000000004"></path><path d="M201.88,366.36l-17.56-10.14c2.92-23-1.42-36.55-7.31-44.27a28,28,0,0,1,9.43,3.06C195.31,319.81,206.07,333.29,201.88,366.36Z" style="fill:#92E3A9"></path><path d="M201.88,366.36l-17.56-10.14c2.92-23-1.42-36.55-7.31-44.27a28,28,0,0,1,9.43,3.06C195.31,319.81,206.07,333.29,201.88,366.36Z" style="opacity:0.5"></path><g id="freepik--bike--inject-422"><path d="M124.26,388c0,4.17,1.45,7.13,3.8,8.54.73.44,1.3.72,1.95,1.1a7,7,0,0,0,4.35,1h.07c.31,0,.63-.08,1-.14l.29,0,.76-.21.54-.15c.18-.06.36-.15.54-.22s.53-.19.8-.32a13.67,13.67,0,0,0,1.36-.71c7.38-4.26,13.36-14.62,13.36-23.13a14.12,14.12,0,0,0-.07-1.48c0-.17,0-.33-.06-.5s-.07-.59-.12-.87-.1-.38-.14-.58-.11-.44-.17-.65a5.48,5.48,0,0,0-.22-.61c-.06-.17-.12-.34-.19-.5a6,6,0,0,0-.31-.62c-.06-.12-.13-.25-.2-.36a4.33,4.33,0,0,0-.41-.61c-.06-.08-.11-.16-.18-.24a7.31,7.31,0,0,0-.52-.59l-.14-.13a5.56,5.56,0,0,0-.66-.54l0,0-.09-.06c-.17-.11-.34-.23-.52-.33-.64-.38-1.25-.66-1.76-1-2.43-1.52-5.84-1.39-9.63.8C130.25,369.12,124.26,379.47,124.26,388Z" style="fill:#455a64"></path><path d="M126.33,389.15c0,8.51,6,12,13.35,7.71S153,382.24,153,373.73s-6-12-13.36-7.72S126.33,380.63,126.33,389.15Z" style="fill:#263238"></path><path d="M139.68,386.16c-2.25,1.3-4.08.24-4.08-2.36a9,9,0,0,1,4.08-7.08c2.26-1.3,4.09-.24,4.09,2.36A9,9,0,0,1,139.68,386.16Z" style="fill:#455a64"></path><path d="M188.29,329.69a36.38,36.38,0,0,0-24.75-13.43,28.45,28.45,0,0,0-3.23-.19h-.55c-6.27.09-13.31,2.16-20.75,6.46l-3,1.75c-26.21,15.12-47.45,51.92-47.45,82.19v6.9A35.43,35.43,0,0,0,93.78,432c.25.42.52.83.79,1.23l.09.13q.34.53.72,1a35.61,35.61,0,0,0,24.84,14.4l.28,0,.53.05,1,.09h.39c.41,0,.81,0,1.23,0h.44v0c6.27-.09,13.31-2.16,20.75-6.46l3-1.75c26.21-15.12,47.45-51.92,47.45-82.19C195.44,346.52,193.84,336.14,188.29,329.69ZM146.4,431.35c-22.13,12.78-40.07,2.42-40.07-23.14s17.94-56.61,40.07-69.39,40.06-2.42,40.06,23.14S168.52,418.57,146.4,431.35Z" style="fill:#455a64"></path><path d="M181.19,324.19c-8.81-4.81-20.32-4-33.28,3.48l-3,1.75c-26.2,15.12-47.45,51.92-47.45,82.19v3.5c0,15,5.2,25.52,13.62,30.55A25.81,25.81,0,0,0,123.7,449c6.38,0,13.57-2.08,21.18-6.48l3-1.75c26.21-15.12,47.45-51.73,47.45-82.19C195.36,336.23,190,329,181.19,324.19ZM146.4,431.35c-22.13,12.78-40.07,2.42-40.07-23.14s17.94-56.61,40.07-69.39,40.06-2.42,40.06,23.14S168.52,418.57,146.4,431.35Z" style="fill:#37474f"></path><path d="M116.6,424.8c6.33,7.54,17.31,8.61,29.8,1.41,19.67-11.35,35.61-39,35.61-61.69,0-10.15-3.19-17.6-8.47-21.73,3.68,4.35,5.82,10.85,5.82,19.17,0,22.7-15.94,50.32-35.62,61.68C132.87,429.92,123.13,429.91,116.6,424.8Z" style="fill:#92E3A9"></path><path d="M116.6,424.8c6.33,7.54,17.31,8.61,29.8,1.41,19.67-11.35,35.61-39,35.61-61.69,0-10.15-3.19-17.6-8.47-21.73,3.68,4.35,5.82,10.85,5.82,19.17,0,22.7-15.94,50.32-35.62,61.68C132.87,429.92,123.13,429.91,116.6,424.8Z" style="opacity:0.4"></path><path d="M106.33,408.22c0,25.55,17.94,35.9,40.07,23.13s40.06-43.85,40.06-69.4-17.93-35.9-40.06-23.13S106.33,382.67,106.33,408.22Zm4.46-2.57c0-22.71,15.94-50.33,35.61-61.69S182,341.81,182,364.52s-15.94,50.33-35.61,61.69S110.79,428.36,110.79,405.65Z" style="fill:#92E3A9"></path><path d="M106.33,408.22c0,25.55,17.94,35.9,40.07,23.13s40.06-43.85,40.06-69.4-17.93-35.9-40.06-23.13S106.33,382.67,106.33,408.22Zm4.46-2.57c0-22.71,15.94-50.33,35.61-61.69S182,341.81,182,364.52s-15.94,50.33-35.61,61.69S110.79,428.36,110.79,405.65Z" style="fill:#fff;opacity:0.15"></path><path d="M182,364.63v-.11c0-.32,0-.64,0-1L158.7,382.43a.39.39,0,0,0-.15.34.4.4,0,0,0,.17.33l15.59,11.4.37-.78-15-11Z" style="fill:#ebebeb"></path><path d="M136.35,382.16a.42.42,0,0,0,.23-.55l-8.59-21,15.78,11.53a.41.41,0,0,0,.4.06.42.42,0,0,0,.26-.29l7.94-30.19.2,26.41a.42.42,0,0,0,.75.26l19.94-25.29-14.74,29.15a.42.42,0,0,0,.06.48.42.42,0,0,0,.47.1L182,363.48c0-.3,0-.61,0-.91l-22.19,9.09,14.35-28.37c-.41-.35-.84-.69-1.28-1L153.41,367l-.2-26.16c-.53.19-1.07.39-1.62.61l-7.82,29.73-15.32-11.2c-.37.46-.73.93-1.09,1.4l8.28,20.21-22.86,9.36c-.08.34-.17.68-.25,1Z" style="fill:#ebebeb"></path><path d="M153.2,393.77a.43.43,0,0,0-.31.12.44.44,0,0,0-.13.31l.2,27.4-8.33-20.32a.4.4,0,0,0-.37-.26.42.42,0,0,0-.4.23L129,430.61l7.73-29.41a.44.44,0,0,0-.18-.46.48.48,0,0,0-.23-.07.45.45,0,0,0-.27.1l-22.79,18.46,20.21-25.64a.41.41,0,0,0,.05-.44.44.44,0,0,0-.36-.24l-20.66-.9c-.07.28-.14.56-.2.84l20,.87-19.43,24.64c.22.58.46,1.15.71,1.69l22-17.82-7.54,28.7q.82.09,1.68.12l14.47-28.6,8.1,19.78c.5-.39,1-.78,1.5-1.19l-.19-26.4,20.2.86.41-.82Z" style="fill:#ebebeb"></path><path d="M149.44,397.71a.44.44,0,0,0-.26.29l-7.42,30.12L141,402a.41.41,0,0,0-.29-.39.3.3,0,0,0-.13,0,.42.42,0,0,0-.33.16l-19.67,25.66,14.32-29.27a.45.45,0,0,0-.08-.48.42.42,0,0,0-.47-.1l-23.21,10.14,23.36-19.57a.44.44,0,0,0,.15-.35.45.45,0,0,0-.19-.33L118.2,376.59l21.65.17h0a.42.42,0,0,0,.3-.12.47.47,0,0,0,.12-.31l-.77-27.08,8.86,19.81a.45.45,0,0,0,.38.25h0a.45.45,0,0,0,.38-.24l14.44-29.53-7.22,29.31a.45.45,0,0,0,.19.46.44.44,0,0,0,.5,0l22.34-18.72c-.12-.27-.24-.53-.37-.79l-21.53,18,7-28.57c-.55-.06-1.11-.1-1.68-.11l-14.08,28.77L140,348.32c-.46.36-.91.72-1.35,1.09l.75,26.51-21-.17c-.25.51-.5,1-.74,1.53l15.83,10.59-22.73,19c0,.63,0,1.25.09,1.85l22.74-9.93L119.57,427.6c.42.31.85.61,1.29.88l19.34-25.24.74,25.64c.56-.23,1.12-.47,1.68-.73l7.24-29.36,15.39,10.29.51-.67-15.93-10.66A.45.45,0,0,0,149.44,397.71ZM161,376.09l18.81-24.55c-.12-.3-.25-.59-.38-.89l-19.61,25.6a.39.39,0,0,0,0,.44.42.42,0,0,0,.37.24l20.38.17q.1-.42.18-.84Zm-4.07,11.78a.4.4,0,0,0,0,.32l9,20c.2-.25.39-.51.58-.77l-8.59-19.22,22.33-9.77c.08-.34.17-.68.25-1l-23.31,10.19A.43.43,0,0,0,156.93,387.87Z" style="fill:#fafafa"></path><path d="M131,391.63c0,4.18,1.44,7.14,3.79,8.55.73.44,1.31.72,1.95,1.1a7,7,0,0,0,4.36,1h.06c.31,0,.64-.08,1-.14l.29-.05a7.17,7.17,0,0,0,.76-.21l.54-.15.54-.21c.27-.11.53-.2.8-.32.45-.21.9-.44,1.37-.71,7.37-4.26,13.35-14.62,13.35-23.13,0-.52,0-1-.06-1.49,0-.17-.05-.32-.07-.49s-.07-.59-.12-.87-.09-.39-.14-.58-.1-.45-.17-.66-.14-.41-.21-.61-.13-.34-.2-.5-.2-.41-.3-.61-.13-.25-.2-.36-.27-.42-.41-.62l-.18-.23a6,6,0,0,0-.53-.59l-.14-.13a5.47,5.47,0,0,0-.65-.54l0,0-.09-.06c-.17-.11-.34-.23-.52-.33-.65-.39-1.26-.66-1.76-1-2.43-1.52-5.84-1.39-9.63.8C137,372.76,131,383.12,131,391.63Z" style="fill:#455a64"></path><path d="M133.05,392.8c0,8.51,6,12,13.35,7.71s13.35-14.62,13.35-23.13-6-12-13.35-7.72S133.05,384.28,133.05,392.8Z" style="fill:#37474f"></path><path d="M146.4,389.8c-2.26,1.31-4.09.25-4.09-2.36a9,9,0,0,1,4.09-7.07c2.25-1.3,4.08-.25,4.08,2.36A9,9,0,0,1,146.4,389.8Z" style="fill:#455a64"></path><path d="M141.57,387.43a3.14,3.14,0,0,0,1.25,2.83c.24.15,2.35,1.33,2.57,1.45a2.29,2.29,0,0,0,1.44.34h0l.31,0,.1,0,.25-.07.18-.05.18-.07a1.45,1.45,0,0,0,.26-.11,3.94,3.94,0,0,0,.46-.23,9.78,9.78,0,0,0,4.42-7.65,3.79,3.79,0,0,0,0-.49,1,1,0,0,0,0-.17,2.89,2.89,0,0,0,0-.29c0-.06,0-.12,0-.19l-.06-.22c0-.07,0-.13-.07-.2a1.11,1.11,0,0,0-.07-.16,2,2,0,0,0-.1-.21l-.06-.12-.14-.2-.06-.08a1.54,1.54,0,0,0-.17-.19l-.05-.05a1.84,1.84,0,0,0-.22-.17h0l0,0-.17-.11c-.21-.13-2.33-1.31-2.5-1.42a3,3,0,0,0-3.18.27A9.76,9.76,0,0,0,141.57,387.43Z" style="fill:#455a64"></path><path d="M144.17,388.91c0,2.81,2,4,4.42,2.55a9.78,9.78,0,0,0,4.42-7.65c0-2.82-2-4-4.42-2.56A9.75,9.75,0,0,0,144.17,388.91Z" style="fill:#263238"></path><path d="M148.59,387.92c-.75.43-1.36.08-1.36-.78a3,3,0,0,1,1.36-2.34c.74-.44,1.35-.09,1.35.78A3,3,0,0,1,148.59,387.92Z" style="fill:#455a64"></path></g><path d="M193.56,303c-22.66-12.85-66.07,19.42-78.36,45L97.63,337.86c12.44-25.85,56.62-58.52,79.08-44.59C179.51,295,189.74,300.7,193.56,303Z" style="fill:#92E3A9"></path><path d="M193.56,303c-22.66-12.85-66.07,19.42-78.36,45L97.63,337.86c12.44-25.85,56.62-58.52,79.08-44.59C179.51,295,189.74,300.7,193.56,303Z" style="opacity:0.2"></path><path d="M186.44,315c-9.93-5.38-23.38-4.62-38.3,4l-3.48,2c-10.85,6.27-21,15.76-29.47,27,12.43-25.85,56.61-58.52,79.07-44.58,20.38,12.65,12.49,47.64,7.61,62.95C206.07,333.3,195.3,319.81,186.44,315Z" style="fill:#92E3A9"></path><path d="M186.44,315c-9.93-5.38-23.38-4.62-38.3,4l-3.48,2c-10.85,6.27-21,15.76-29.47,27,12.43-25.85,56.61-58.52,79.07-44.58,20.38,12.65,12.49,47.64,7.61,62.95C206.07,333.3,195.3,319.81,186.44,315Z" style="opacity:0.30000000000000004"></path><g style="opacity:0.5"><path d="M119.81,340.1q1.27-1.86,2.71-3.72L105,326.25c-.95,1.24-1.86,2.48-2.7,3.72Z" style="fill:#92E3A9"></path><path d="M131.84,325.94,114.28,315.8q-3.42,3.36-6.4,6.86l17.55,10.13C127.41,330.47,129.56,328.17,131.84,325.94Z" style="fill:#92E3A9"></path><path d="M139.45,297.16a97,97,0,0,0-9,5.38l17.56,10.14a100.67,100.67,0,0,1,8.95-5.39Z" style="fill:#92E3A9"></path></g><path d="M148.59,388a1.67,1.67,0,0,1-1.58-2.27l38.16-102.59a1.68,1.68,0,1,1,3.16,1.17L150.17,386.94A1.69,1.69,0,0,1,148.59,388Z" style="fill:#fafafa"></path><path d="M130.88,199.49l4.59-7.93-19.41-11.21h0a2.26,2.26,0,0,0-2.32.2,7.18,7.18,0,0,0-3.24,5.61,2.3,2.3,0,0,0,.9,2.07h0l0,0h0Z" style="fill:#455a64"></path><path d="M129.93,197.4c0,2.06,1.45,2.9,3.24,1.87a7.18,7.18,0,0,0,3.24-5.62c0-2.06-1.45-2.9-3.24-1.87A7.18,7.18,0,0,0,129.93,197.4Z" style="fill:#37474f"></path><path d="M152.3,234l-2.84-1.64h0l-3-30.53h0a.52.52,0,0,0-.22-.38h0l-12.31-7.12h0a.61.61,0,0,0-.63.05,2,2,0,0,0-.89,1.53.65.65,0,0,0,.25.57h0l11.87,6.86,3,30.5c0,.31.29.42.68.64h0l3.69,2.14a1.64,1.64,0,0,0,2-.28Z" style="fill:#f0f0f0"></path><path d="M166.72,242.46c13.1,10.65,13.76,20.06,13.78,22.8L153,248.44c14.27,11.6,13.78,23.66,13.78,25.31s.05,3.8.05,3.8l24.06,13.89,13.71-7.92a13.78,13.78,0,0,1,.8-4.63,10.79,10.79,0,0,1,1.34-.06l-1-.56c.89-1.76,2.25-2.61,4-3.61,3.48-2,8.26-3.2,10.73-3.09Z" style="fill:#92E3A9"></path><path d="M206.75,278.83c-.22,0-.48,0-.73,0C206.28,278.83,206.53,278.82,206.75,278.83Z" style="fill:#92E3A9"></path><path d="M196,282.57c3.17-1.79,7.4-3.61,10-3.73l-.62.06a13.92,13.92,0,0,0-.79,4.62l-13.72,7.92a10.18,10.18,0,0,1,5.13-8.87Z" style="opacity:0.30000000000000004"></path><path d="M196,282.58c3.48-2,8.26-3.85,10.73-3.75L153,248.44c14.27,11.6,13.78,23.66,13.78,25.31s.05,3.8.05,3.8l24.06,13.89h0A10.17,10.17,0,0,1,196,282.58Z" style="fill:#92E3A9"></path><path d="M196,282.58c3.48-2,8.26-3.85,10.73-3.75L153,248.44c14.27,11.6,13.78,23.66,13.78,25.31s.05,3.8.05,3.8l24.06,13.89h0A10.17,10.17,0,0,1,196,282.58Z" style="opacity:0.2"></path><polygon points="189.13 274.04 217.61 281.78 217.61 273.21 197.07 261.35 189.13 274.04" style="fill:#92E3A9"></polygon><polygon points="204.49 257.07 225.03 268.93 217.61 273.21 197.07 261.35 204.49 257.07" style="fill:#92E3A9"></polygon><polygon points="204.49 257.07 225.03 268.93 217.61 273.21 197.07 261.35 204.49 257.07" style="fill:#fff;opacity:0.4"></polygon><polygon points="217.61 281.78 225.03 277.5 225.03 268.93 217.61 273.21 217.61 281.78" style="fill:#92E3A9"></polygon><polygon points="217.61 281.78 225.03 277.5 225.03 268.93 217.61 273.21 217.61 281.78" style="opacity:0.2"></polygon><polygon points="165.48 243.17 145.06 231.32 152.48 227.04 172.9 238.89 165.48 243.17" style="fill:#92E3A9"></polygon><polygon points="165.48 243.17 145.06 231.32 152.48 227.04 172.9 238.89 165.48 243.17" style="fill:#fff;opacity:0.4"></polygon><polygon points="145.06 239.89 158.06 256.03 165.48 243.17 145.06 231.32 145.06 239.89" style="fill:#92E3A9"></polygon><path d="M199.17,250.93a22.73,22.73,0,0,0-4.88-4L170.17,233a4,4,0,0,0-4.88.82l-3.22,3.72a19.92,19.92,0,0,0-3.15,5.45l-5.32,15.36a4,4,0,0,0,1.73,4.64l24.12,13.92a6.12,6.12,0,0,0,5.56,0l1.86-1.07a14.19,14.19,0,0,0,4.38-4.38l4.21-7.3a14.12,14.12,0,0,1,4.39-4.38l4.64-2.68Z" style="fill:#92E3A9"></path><path d="M199.17,250.93a22.73,22.73,0,0,0-4.88-4L170.17,233a4,4,0,0,0-4.88.82l-3.22,3.72a19.92,19.92,0,0,0-3.15,5.45l-5.32,15.36a4,4,0,0,0,1.73,4.64l24.12,13.92a6.12,6.12,0,0,0,5.56,0l1.86-1.07a14.19,14.19,0,0,0,4.38-4.38l4.21-7.3a14.12,14.12,0,0,1,4.39-4.38l4.64-2.68Z" style="opacity:0.1"></path><path d="M191.75,254.64l3.22-3.71a2.55,2.55,0,0,0-.68-4L170.17,233a4,4,0,0,0-4.88.82l-3.22,3.72a2.55,2.55,0,0,0,.68,4l24.12,13.92A4,4,0,0,0,191.75,254.64Z" style="fill:#92E3A9"></path><path d="M188.6,260.1l-5.32,15.36a2.55,2.55,0,0,1-3.83,1.42L155.33,263a4,4,0,0,1-1.73-4.64L158.92,243a2.55,2.55,0,0,1,3.83-1.42l24.12,13.92A4.06,4.06,0,0,1,188.6,260.1Z" style="fill:#455a64"></path><path d="M180.73,274.66l-24.12-13.93a1.5,1.5,0,0,1-.59-1.57l5.32-15.36a.36.36,0,0,0,0-.09l24.21,14a1.49,1.49,0,0,1,.58,1.57l-5.32,15.36,0,.08Z" style="fill:#ebebeb"></path><path d="M162.47,246.27,158,259.41,179.57,272l.92-2.43s-11.74-5.95-15-10.36S162.47,246.27,162.47,246.27Z" style="fill:#fafafa"></path><path d="M173.1,260.36a1.89,1.89,0,0,1-2.8,1.16,3,3,0,0,1-1.2-3.47,1.89,1.89,0,0,1,2.8-1.15A3,3,0,0,1,173.1,260.36Z" style="fill:#e0e0e0"></path><path d="M252,265.33c0,.57.39.79.88.51a1.94,1.94,0,0,0,.89-1.53c0-.56-.4-.79-.89-.51A2,2,0,0,0,252,265.33Z" style="fill:#e0e0e0"></path><path d="M244.13,259.79l-17,17.51L222,274.35h0a.59.59,0,0,0-.63.06,2,2,0,0,0-.88,1.53.59.59,0,0,0,.25.55h0l6,3.46a1.66,1.66,0,0,0,2-.28l17.06-17.52,6.46,3.74,1.25-2.16-7.33-4.24A1.65,1.65,0,0,0,244.13,259.79Z" style="fill:#f0f0f0"></path><path d="M271.1,280.66l4.59-7.93-19.41-11.2h0a2.24,2.24,0,0,0-2.32.21,7.15,7.15,0,0,0-3.24,5.61,2.3,2.3,0,0,0,.91,2.06h0l0,0h0Z" style="fill:#455a64"></path><path d="M270.16,278.57c0,2.06,1.45,2.9,3.24,1.87a7.16,7.16,0,0,0,3.24-5.61c0-2.07-1.45-2.91-3.24-1.87A7.15,7.15,0,0,0,270.16,278.57Z" style="fill:#263238"></path><g id="freepik--Top--inject-422"><path d="M134.2,170,139,184.61s23.87.27,36.31.22l4.57-21.11Z" style="fill:#f28f8f"></path><path d="M143.16,168.8c2.74,2,4.36,14.54,3,16,0,0,28.63.6,34.69.54s9-.36,13.15-5.25c5.68-6.71,21-24.14,21-24.14l-8.59-24.06c-7.1.28-8.79,4.35-15.63,15-4.83,7.52-10.89,16.5-10.89,16.5Z" style="fill:#92E3A9"></path><path d="M143.16,168.8c2.74,2,4.36,14.54,3,16,0,0,28.63.6,34.69.54s9-.36,13.15-5.25c5.68-6.71,21-24.14,21-24.14l-8.59-24.06c-7.1.28-8.79,4.35-15.63,15-4.83,7.52-10.89,16.5-10.89,16.5Z" style="opacity:0.34"></path><path d="M161.62,166.07l-18.46,2.73c2.74,2,4.36,14.54,3,16,0,0,16.2.34,26.8.48C172,177.44,169.6,170.6,161.62,166.07Zm8.11-1.19-4.25.62c6.76,4.46,10.25,11.4,10.29,19.84,2.19,0,4,0,5,0h.13C180.23,180.82,177.77,170,169.73,164.88Z" style="fill:#92E3A9"></path><path d="M211.22,190.1c-11.82-21.65-13.87-24.18-14.16-35.38-.2-7.5,2.67-13.62,7.6-21.92,1.23-2.07,6-2.84,15.45-1.43,1.76.27,27.22,5.66,27.22,5.66,5.31,1.56,11.25,11.12,17,24.05s14,28.61,16.12,46.16C257.11,234,223,224.2,215,210,218.78,202.57,216.51,199.79,211.22,190.1Z" style="fill:#263238"></path><path d="M210.16,188.16C215,181,235,152.75,254.05,147.89c1.1-.28,2.1-.58,3-.89-3.35-5.42-6.66-9.06-9.75-10l-2.68-.57c-7.37,2.34-32.26,22.2-40.3,41.1C205.93,180.48,207.84,183.93,210.16,188.16Z" style="fill:#92E3A9"></path><path d="M220.91,177.45a.92.92,0,0,0-.38.15,2.19,2.19,0,0,0-.5.46,4.25,4.25,0,0,0-.37.47,5.36,5.36,0,0,0-.49,1,11.59,11.59,0,0,0-.65,2.46,3.13,3.13,0,0,0,.1,1.77,1.18,1.18,0,0,0,.73.65c1.19.38,2-1,2.36-1.89a6.57,6.57,0,0,0,.39-1.7,6.11,6.11,0,0,0,0-1.86,2.53,2.53,0,0,0-.49-1.08,1.6,1.6,0,0,0-.43-.39A.57.57,0,0,0,220.91,177.45Zm.1,4.29c-.2.59-.68,1.66-1.43,1.69-.32,0-.46-.2-.45-.5a9.06,9.06,0,0,1,.35-2.06,6.5,6.5,0,0,1,1-2.25.41.41,0,0,1,.68-.07,1.17,1.17,0,0,1,.22.68A6.48,6.48,0,0,1,221,181.74Zm4.51-5.56c-.15.44-.08.9-.2,1.35a3.07,3.07,0,0,1-.62,1.22c-.15.17-.69.71-.95.45-.07-.07-.06-.46-.07-.57s0-.51,0-.77a9.23,9.23,0,0,1,.53-3,5.86,5.86,0,0,1,.68-1.43c.11-.16.33-.51.57-.5s.23.38.26.55.1,0,.13,0a1,1,0,0,0-.12-1.28c-.42-.39-.9,0-1.21.3a6.52,6.52,0,0,0-1.38,3.06,9.43,9.43,0,0,0-.16,3.51,1.4,1.4,0,0,0,.83,1.16,1.34,1.34,0,0,0,1.33-.41,3.43,3.43,0,0,0,.95-3.57C226,176,225.64,175.86,225.52,176.18Zm8.68-4.39a5.43,5.43,0,0,1-.09-.81,3.18,3.18,0,0,0-.06-.43,3.22,3.22,0,0,0-.34-.84c0-.1-.18-.21-.29-.14a1.25,1.25,0,0,0-.3.21,1.28,1.28,0,0,0-.24.59.92.92,0,0,0,0,.33c0,.15,0,.3.06.45-.94.12-1.88.26-2.8.44-.51.1-1,.2-1.51.32l-.36.1c.33-.51.65-1,1-1.52l.76-1.12.41-.6a4.45,4.45,0,0,0,.38-.58.7.7,0,0,0-.11-.73c-.13-.15-.44-.26-.55,0a3.17,3.17,0,0,1-.37.58l-.33.53c-.25.39-.5.78-.73,1.18-.35.58-.67,1.18-1,1.77,0-.39,0-.78-.06-1.17a.68.68,0,0,0-.37-.65.33.33,0,0,0-.42.35c0,2,0,3.93.12,5.89a.82.82,0,0,0,.66.71c.34,0,.48-.28.45-.57-.11-1-.19-1.94-.27-2.92a16.08,16.08,0,0,0,2.93-.29c1-.14,2.1-.3,3.16-.43C234.19,172.39,234.25,172,234.2,171.79Zm-14.64,14.37a.3.3,0,0,0-.39.22,6.54,6.54,0,0,0-.18,1.76c-1.05,0-2.11.05-3.16.11.46-.68.93-1.35,1.37-2.05a2.9,2.9,0,0,0,.55-1.44,1,1,0,0,0-.9-1,2.18,2.18,0,0,0-1.14.64,10.12,10.12,0,0,0-1.06,1,8,8,0,0,0-.68.86h0s0,.05,0,.08a8.73,8.73,0,0,0-1,1.84c-.08.2.12.67.32.37s.42-.61.65-.9c0,.15,0,.3.05.45.06.45.14.89.21,1.34.13.88.27,1.77.41,2.65a.84.84,0,0,0,.62.71.43.43,0,0,0,.45-.55,1.58,1.58,0,0,0,0-.21c0-.11,0-.21-.05-.32s-.1-.51-.14-.76c-.09-.47-.17-.94-.25-1.41,1.5-.11,3-.16,4.5-.16A.38.38,0,0,0,220,189a10,10,0,0,0-.09-2.32A.65.65,0,0,0,219.56,186.16Zm-4.66,1.89c-.06-.28-.2-1-.29-1.25a5.58,5.58,0,0,1,2-2.05,2.49,2.49,0,0,1-.45,1.59A10.63,10.63,0,0,1,214.9,188.05Z" style="fill:#92E3A9"></path><path d="M215.43,192.27Z" style="fill:#92E3A9"></path><path d="M215.4,192.15h0l0,.12A.5.5,0,0,1,215.4,192.15Z" style="fill:#92E3A9"></path><path d="M225.5,130.91c-.18-1.43,2.16-5,4.71-8.53,3-4.13,4.82-7.09,5.34-10.65,1.48-10.17-2.86-20.18-9.87-20.23-.75-3-3.5-6-8.23-7.5a22.45,22.45,0,0,0-10.92-.56c-4.07.77-6.54,1.83-11.33,4.17-2.48,1.22-5.19,2.23-6.83,4.46s-2.11,5.45-.58,7.75a8.3,8.3,0,0,0-1.68,7.13c.72,4,5.5,6.06,8.72,7.76l19.33,10.21Z" style="fill:#263238"></path><path d="M228.87,113.74l.72,21.22a33,33,0,0,1-7,10.94c-2.59,2.78-8.58,6.62-10.91,3.76-1.41-1.9-3.09-12.06-3.09-12.06l-.25-1.49Z" style="fill:#f28f8f"></path><path d="M191.5,96.33c-.17.29,1.15,1.31,1.33,1.45a15.36,15.36,0,0,0,2.64,1.65,19.3,19.3,0,0,0,5.89,1.78,36.64,36.64,0,0,0,10-.19.75.75,0,0,1,.47,0,.78.78,0,0,1,.33.44,11.69,11.69,0,0,0,1.3,2.93,7.48,7.48,0,0,0,3.42,2.11.58.58,0,0,1,.31.19.51.51,0,0,1,.1.3c.29,2.48-1,5.08-.19,7.44a2.37,2.37,0,0,0,.8,1.16,1.31,1.31,0,0,0,1.9-.4c1-1.4,1.52-3.09,2.39-4.58.34-.58.74-1.13,1.13-1.67a6.48,6.48,0,0,1,1.73-1.77,4.6,4.6,0,0,1,3.62-.2,5.38,5.38,0,0,1,3.24,3.81c1,3.61-1.15,7.43-2.24,8.6a4.94,4.94,0,0,1-3.84,1.61,3.16,3.16,0,0,1-2.55-1.53l-.61-.51L221.11,124a28.29,28.29,0,0,1-3.56,7.78c-1.74,1.54-6.5,3.88-7.45,3.86l-1.48.41c-4.53,1-10.92,1-13.42.08s-7-3.38-7-18.37C188.18,99.68,191.11,97,191.5,96.33Z" style="fill:#f28f8f"></path><path d="M221.66,122.15s.28,6.78-3.3,10.78a17,17,0,0,1-9.19,5.38l-.85-2.16a38.45,38.45,0,0,0,3.74-1.29,26.4,26.4,0,0,0,4.17-2.33C220.29,129.8,221.08,123.43,221.66,122.15Z" style="fill:#b16668"></path><path d="M209.47,135.93s1.66,11.16,2.71,13.2c.65,1.27,3,1.29,4.36,1,0,0-3.37,1.67-4.89-.43s-3.33-13.51-3.33-13.51Z" style="fill:#b16668"></path><path d="M203.85,114.71a1.9,1.9,0,1,0,2-1.9A1.93,1.93,0,0,0,203.85,114.71Z" style="fill:#263238"></path><path d="M204.58,108.1l4.33,1.62a2.41,2.41,0,0,0-1.4-3A2.25,2.25,0,0,0,204.58,108.1Z" style="fill:#263238"></path><path d="M204.39,124.67l-3.85,2.57a2.42,2.42,0,0,0,3.3.64A2.25,2.25,0,0,0,204.39,124.67Z" style="fill:#b16668"></path><path d="M189.63,108.65l4.45-1.4a2.23,2.23,0,0,0-2.84-1.57A2.45,2.45,0,0,0,189.63,108.65Z" style="fill:#263238"></path><path d="M189.77,113.26a1.92,1.92,0,0,0,1.82,2,2,2,0,0,0,2-1.9,1.9,1.9,0,1,0-3.79-.14Z" style="fill:#263238"></path><polygon points="198.02 112.05 197.48 122.81 192.83 121.91 198.02 112.05" style="fill:#b16668"></polygon><path d="M238.56,124.5c-6.63,10.48-24,18.13-28.65,19.18s-7.36,1.4-12.32-.88-8.8-7.58-10.8-14a16.23,16.23,0,0,0,2.22,4.33c3.46,4.38,7.9,6.74,15.21,5.22s15.24-11.38,18.47-19.32c2.56-6.3,5.38-20.4,1.45-22.19C222.56,96.14,209.94,108,195,107c-8.22-.59-10.05-3.92-11-5.37,2.32-25.41,37.37-35.73,53.25-17S238.56,124.5,238.56,124.5Z" style="fill:#92E3A9"></path><path d="M222.69,119.05c-3.23,7.94-11.16,17.8-18.47,19.32s-11.75-.84-15.21-5.22a16.23,16.23,0,0,1-2.22-4.33c-2.13-5.87-3.31-15.55-2.81-27.22.94,1.45,2.77,4.78,11,5.37,15,1.07,27.59-10.83,29.17-10.11C228.07,98.65,225.25,112.75,222.69,119.05Z" style="fill:#92E3A9;opacity:0.45"></path><path d="M222.69,119.05c-3.23,7.94-11.16,17.8-18.47,19.32s-11.75-.84-15.21-5.22a16.23,16.23,0,0,1-2.22-4.33c-2.13-5.87-3.31-15.55-2.81-27.22.94,1.45,2.77,4.78,11,5.37,15,1.07,27.59-10.83,29.17-10.11C228.07,98.65,225.25,112.75,222.69,119.05Z" style="opacity:0.45"></path><path d="M210.71,75.39c-19.82,7.07-22.23,23.16-23,29.81h0A18.34,18.34,0,0,0,195,107a29.91,29.91,0,0,0,8.78-.75,38.08,38.08,0,0,1,7.1-19.78A19.13,19.13,0,0,1,230,78.65,30.37,30.37,0,0,0,210.71,75.39Z" style="opacity:0.4"></path><path d="M192.44,84.16c-12.62,11.64-18.54,24.4-16.35,25.74s10.44,3,15.58,3.15c4.77.15,21.49-9.18,29-14.56s4.53,11.67,4.53,11.67,6.58-13.87,1.18-19.18A48.79,48.79,0,0,0,192.44,84.16Z" style="fill:#92E3A9"></path><path d="M223.17,117.78c-5.92,11.68-18.95,9.09-24.09,5.67s-8.33-4.48-13.53,1c1.47,12,3.84,19.79,7.51,21,2.76.92,22.61-.69,33.92-10Z" style="fill:#92E3A9"></path><path d="M208.85,142.12c26.55-8.44,32-23.77,33.23-31.33C242.08,110.79,237.4,130.68,208.85,142.12Z" style="fill:#fff;opacity:0.2"></path><path d="M185.55,124.48c5-5.79,8.47-4.69,13.57-1.22,5.49,3.73,18.47,5.92,24-5.94,1.9-4.08,4.07-21.17-.89-19.69,2.88-1.63,4.75.52,5,5.44A35.22,35.22,0,0,1,223.64,120a15.28,15.28,0,0,1-15.31,8.14c-6.88-.58-8.61-2.57-12.1-4.6s-5.69-1.5-7.73.43a19.07,19.07,0,0,0-2.61,2.93A3.51,3.51,0,0,1,185.55,124.48Z" style="fill:#263238"></path><g style="opacity:0.34"><path d="M222.23,97.65v0l-.11.05Z"></path><path d="M220.7,98.49a7.35,7.35,0,0,1,1.08-.65c-3.32,1.5-23.07,12-28.95,12.28-3.76.14-11.71-.64-15.23-2.33a1.87,1.87,0,0,1-1-2.63c-1,2.55-1.22,4.29-.49,4.74,2.2,1.33,10.44,3,15.58,3.15C196.44,113.2,213.16,103.87,220.7,98.49Z"></path></g><path d="M267.21,246.46c.78-4,2.41-46.77,2.41-46.77l20.5,5.93s-8.17,51.27-10.6,57.19A14.31,14.31,0,0,1,272,270.6Z" style="fill:#f28f8f"></path><path d="M247.33,137c13.12,2.73,16,2.9,22.34,13.64a224.47,224.47,0,0,1,12.78,25.44c6.43,14.47,7.28,16.63,8.5,20.92,1.31,4.65,0,8.9-1.38,19.46-.82,6.3-6.29,29.78-6.29,29.78-3.11-4.28-11.37-6.14-16.07-6.62l.79-40.16-18.21-33.91S240,149.75,247.33,137Z" style="fill:#92E3A9"></path><path d="M247.33,137c13.12,2.73,16,2.9,22.34,13.64a224.47,224.47,0,0,1,12.78,25.44c6.43,14.47,7.28,16.63,8.5,20.92,1.31,4.65,0,8.9-1.38,19.46-.82,6.3-6.29,29.78-6.29,29.78-3.11-4.28-11.37-6.14-16.07-6.62l.79-40.16-18.21-33.91S240,149.75,247.33,137Z" style="opacity:0.34"></path><path d="M267.7,214.79l-.49,24.86c4.7.48,13,2.34,16.07,6.62,0,0,2.12-9.1,3.92-17.5C284.43,225,278,219.35,267.7,214.79Z" style="fill:#92E3A9"></path><path d="M267.91,204,267.8,210c6,2.26,15.35,7.87,20.51,13.5.46-2.27.85-4.28,1.09-5.78A41.49,41.49,0,0,0,267.91,204Z" style="fill:#92E3A9"></path><path d="M267.21,246.46c-1.34,1.89-4,3-6,4.09-2.8,1.56-5.58,3.18-8.28,4.88a7.43,7.43,0,0,0-2,1.83c-1.18,1.64-1.29,3.79-1.36,5.8q-.15,4.51-.31,9a8.77,8.77,0,0,0,.1,2.11,3,3,0,0,0,1,1.79c.78.59,1.88.61,2.67,1.19s1.17,1.61,2.05,2,1.62.1,2.41.29,1.61.94,2.5,1.23a5.69,5.69,0,0,0,3,.07,10.82,10.82,0,0,0,4.11-2.43l-2.8-1.62c-.45-2.45,1.39-6.73,5.12-7.62l2.6,1.5c2.46-3,4.36-4.36,4.67-8.74Z" style="fill:#f28f8f"></path><path d="M266.09,250.23l-3.92,8.17a1.22,1.22,0,0,1-1.15.73,1.26,1.26,0,0,1-.65-.17l-6.48-3.75-5.55,5.57-2.19-1.26,6-6.68a1.31,1.31,0,0,1,.78-.66,1.26,1.26,0,0,1,1,.11l6.48,3.76,3.31-6.92a1.28,1.28,0,1,1,2.32,1.1Z" style="fill:#263238"></path><path d="M272,238.79l-9-5.18a2.34,2.34,0,0,0-2.37-.23c-.45.27-2.21,1.25-2.68,1.55a2.42,2.42,0,0,0-.89,2.11v4.34a7.37,7.37,0,0,0,3.34,5.78l9,5.18a2.34,2.34,0,0,0,2.33.24l2.63-1.51a2.36,2.36,0,0,0,1-2.16v-4.34A7.35,7.35,0,0,0,272,238.79Z" style="fill:#37474f"></path><path d="M260.45,247.16l9,5.18c1.84,1.06,3.33.2,3.33-1.93v-4.34a7.36,7.36,0,0,0-3.33-5.77l-9-5.18c-1.85-1.07-3.34-.21-3.34,1.92v4.34A7.37,7.37,0,0,0,260.45,247.16Z" style="fill:#455a64"></path><path d="M134.2,170s-6.2,1.59-10.08,2.83a66.48,66.48,0,0,0-8.5,3.08,6,6,0,0,0-2.05,1.83c-1.17,1.63-1.28,3.78-1.35,5.79q-.16,4.52-.31,9a8.74,8.74,0,0,0,.09,2.11,2.91,2.91,0,0,0,1,1.79c.78.59,1.88.61,2.67,1.19s1.17,1.61,2.05,2,1.61.09,2.4.28,1.61.94,2.5,1.23a5.72,5.72,0,0,0,3,.07,10.84,10.84,0,0,0,4.1-2.43L127,197.23c-.46-2.44,1.38-6.72,5.11-7.62l2.42,1.4c2.46-3,4.55-4.26,4.86-8.64Z" style="fill:#f28f8f"></path><path d="M142.59,199.32l-1.85-9.22-7.86-4.49a1.3,1.3,0,0,1-.59-.73l-4.63-14.94a1.28,1.28,0,0,1,2.45-.76l4.49,14.46,7.86,4.49a1.24,1.24,0,0,1,.58.73L145.41,201Z" style="fill:#263238"></path><path d="M136.7,160.64l-9-5.18a2.34,2.34,0,0,0-2.37-.22c-.45.26-2.22,1.24-2.68,1.55a2.37,2.37,0,0,0-.9,2.1v4.34a7.38,7.38,0,0,0,3.34,5.78l9,5.18a2.37,2.37,0,0,0,2.33.25c.47-.26,2.18-1.26,2.63-1.52a2.33,2.33,0,0,0,1-2.16v-4.34A7.38,7.38,0,0,0,136.7,160.64Z" style="fill:#37474f"></path><path d="M125.12,169l9,5.18c1.84,1.06,3.34.2,3.34-1.93v-4.34a7.38,7.38,0,0,0-3.34-5.77l-9-5.18c-1.84-1.07-3.34-.2-3.34,1.92v4.34A7.38,7.38,0,0,0,125.12,169Z" style="fill:#455a64"></path></g></g></g><g id="freepik--speed-lines--inject-422"><g id="freepik--Lines--inject-422"><path d="M375.06,102.87q-11.08,7-22.36,13.79c-7.51,4.51-15.07,8.92-22.64,13.31s-15.2,8.69-22.86,12.93-15.36,8.41-23.14,12.44q11.08-7.07,22.36-13.79c7.51-4.51,15.07-8.92,22.64-13.31s15.2-8.69,22.86-12.93S367.28,106.91,375.06,102.87Z" style="fill:#92E3A9"></path><path d="M349.86,131.42q-14,8.78-28.24,17.21c-9.47,5.65-19,11.2-28.53,16.73s-19.12,11-28.74,16.34-19.29,10.68-29,15.86q14-8.77,28.25-17.21c9.46-5.65,19-11.2,28.52-16.73s19.12-11,28.75-16.34S340.13,136.6,349.86,131.42Z" style="fill:#92E3A9"></path><path d="M319.52,118.71q-7.17,4.8-14.52,9.27c-4.89,3-9.84,5.9-14.79,8.78s-10,5.68-15,8.4-10.13,5.39-15.3,7.92q7.17-4.8,14.52-9.27c4.89-3,9.84-5.9,14.8-8.78s10-5.67,15-8.4S314.36,121.24,319.52,118.71Z" style="fill:#92E3A9"></path><path d="M421.48,233.15Q413,238.76,404.37,244c-5.75,3.54-11.57,7-17.39,10.39s-11.7,6.75-17.61,10-11.87,6.46-17.9,9.53q8.46-5.61,17.11-10.88c5.76-3.53,11.57-7,17.39-10.39s11.7-6.74,17.62-10S415.45,236.22,421.48,233.15Z" style="fill:#92E3A9"></path><path d="M385.11,280.08q-15.67,9.84-31.55,19.36t-31.83,18.88q-16,9.31-32.05,18.49t-32.34,18Q273,345,288.89,335.46t31.83-18.87q16-9.31,32.06-18.49T385.11,280.08Z" style="fill:#92E3A9"></path><path d="M434.9,206.7q-9.5,6.2-19.18,12.08c-6.44,3.94-13,7.78-19.46,11.6s-13.08,7.55-19.69,11.22-13.25,7.27-20,10.73q9.5-6.21,19.18-12.08c6.45-3.94,13-7.78,19.47-11.6s13.08-7.55,19.69-11.22S428.18,210.17,434.9,206.7Z" style="fill:#92E3A9"></path><path d="M145.26,125.27q-12.49,8-25.2,15.59C111.61,146,103.1,151,94.58,156s-17.1,9.89-25.71,14.73-17.26,9.61-26,14.24q12.51-8,25.21-15.59c8.45-5.11,17-10.12,25.48-15.11s17.09-9.89,25.71-14.72S136.54,129.91,145.26,125.27Z" style="fill:#92E3A9"></path><path d="M158.68,98.82q-9.5,6.2-19.18,12.08c-6.44,3.94-13,7.78-19.46,11.6s-13.08,7.55-19.69,11.22-13.25,7.26-20,10.73q9.5-6.21,19.19-12.08c6.44-3.94,12.94-7.78,19.46-11.6s13.08-7.55,19.69-11.22S152,102.29,158.68,98.82Z" style="fill:#92E3A9"></path><path d="M134.86,440.46q-7.2,4.86-14.6,9.4c-4.92,3.05-9.89,6-14.88,8.92s-10,5.77-15.1,8.54-10.19,5.49-15.38,8.06q7.2-4.87,14.59-9.4c4.92-3.05,9.9-6,14.88-8.92s10-5.77,15.11-8.54S129.67,443,134.86,440.46Z" style="fill:#92E3A9"></path><path d="M147.85,267q-11.52,7.38-23.22,14.42c-7.79,4.72-15.64,9.34-23.49,13.94s-15.77,9.12-23.72,13.56-15.94,8.83-24,13.08q11.51-7.38,23.21-14.43c7.79-4.72,15.64-9.34,23.5-13.93s15.77-9.12,23.72-13.56S139.79,271.2,147.85,267Z" style="fill:#92E3A9"></path><path d="M111.29,269.3q-11.51,7.36-23.22,14.42c-7.79,4.72-15.63,9.34-23.49,13.94s-15.77,9.11-23.72,13.56-15.94,8.83-24,13.07q11.51-7.38,23.21-14.42c7.79-4.72,15.64-9.34,23.5-13.94s15.77-9.11,23.72-13.56S103.23,273.55,111.29,269.3Z" style="fill:#92E3A9"></path><path d="M471.54,110.75q-11.52,7.36-23.22,14.42c-7.79,4.72-15.64,9.34-23.5,13.94s-15.77,9.11-23.71,13.56-15.94,8.83-24,13.07q11.52-7.38,23.22-14.42c7.79-4.72,15.64-9.34,23.5-13.94s15.77-9.11,23.72-13.56S463.47,115,471.54,110.75Z" style="fill:#92E3A9"></path><path d="M445.73,271.22q-11.5,7.38-23.21,14.42c-7.79,4.72-15.64,9.34-23.5,13.94s-15.77,9.11-23.72,13.56-15.94,8.83-24,13.07q11.51-7.36,23.22-14.42c7.79-4.72,15.63-9.34,23.49-13.94s15.77-9.11,23.72-13.55S437.67,275.47,445.73,271.22Z" style="fill:#92E3A9"></path><path d="M375.06,102.87q-11.08,7-22.36,13.79c-7.51,4.51-15.07,8.92-22.64,13.31s-15.2,8.69-22.86,12.93-15.36,8.41-23.14,12.44q11.08-7.07,22.36-13.79c7.51-4.51,15.07-8.92,22.64-13.31s15.2-8.69,22.86-12.93S367.28,106.91,375.06,102.87Z" style="fill:#fff;opacity:0.5"></path><path d="M349.86,131.42q-14,8.78-28.24,17.21c-9.47,5.65-19,11.2-28.53,16.73s-19.12,11-28.74,16.34-19.29,10.68-29,15.86q14-8.77,28.25-17.21c9.46-5.65,19-11.2,28.52-16.73s19.12-11,28.75-16.34S340.13,136.6,349.86,131.42Z" style="fill:#fff;opacity:0.5"></path><path d="M319.52,118.71q-7.17,4.8-14.52,9.27c-4.89,3-9.84,5.9-14.79,8.78s-10,5.68-15,8.4-10.13,5.39-15.3,7.92q7.17-4.8,14.52-9.27c4.89-3,9.84-5.9,14.8-8.78s10-5.67,15-8.4S314.36,121.24,319.52,118.71Z" style="fill:#fff;opacity:0.5"></path><path d="M421.48,233.15Q413,238.76,404.37,244c-5.75,3.54-11.57,7-17.39,10.39s-11.7,6.75-17.61,10-11.87,6.46-17.9,9.53q8.46-5.61,17.11-10.88c5.76-3.53,11.57-7,17.39-10.39s11.7-6.74,17.62-10S415.45,236.22,421.48,233.15Z" style="fill:#fff;opacity:0.5"></path><path d="M385.11,280.08q-15.67,9.84-31.55,19.36t-31.83,18.88q-16,9.31-32.05,18.49t-32.34,18Q273,345,288.89,335.46t31.83-18.87q16-9.31,32.06-18.49T385.11,280.08Z" style="fill:#fff;opacity:0.5"></path><path d="M434.9,206.7q-9.5,6.2-19.18,12.08c-6.44,3.94-13,7.78-19.46,11.6s-13.08,7.55-19.69,11.22-13.25,7.27-20,10.73q9.5-6.21,19.18-12.08c6.45-3.94,13-7.78,19.47-11.6s13.08-7.55,19.69-11.22S428.18,210.17,434.9,206.7Z" style="fill:#fff;opacity:0.5"></path><path d="M145.26,125.27q-12.49,8-25.2,15.59C111.61,146,103.1,151,94.58,156s-17.1,9.89-25.71,14.73-17.26,9.61-26,14.24q12.51-8,25.21-15.59c8.45-5.11,17-10.12,25.48-15.11s17.09-9.89,25.71-14.72S136.54,129.91,145.26,125.27Z" style="fill:#fff;opacity:0.5"></path><path d="M158.68,98.82q-9.5,6.2-19.18,12.08c-6.44,3.94-13,7.78-19.46,11.6s-13.08,7.55-19.69,11.22-13.25,7.26-20,10.73q9.5-6.21,19.19-12.08c6.44-3.94,12.94-7.78,19.46-11.6s13.08-7.55,19.69-11.22S152,102.29,158.68,98.82Z" style="fill:#fff;opacity:0.5"></path><path d="M445.73,271.22q-11.5,7.38-23.21,14.42c-7.79,4.72-15.64,9.34-23.5,13.94s-15.77,9.11-23.72,13.56-15.94,8.83-24,13.07q11.51-7.36,23.22-14.42c7.79-4.72,15.63-9.34,23.49-13.94s15.77-9.11,23.72-13.55S437.67,275.47,445.73,271.22Z" style="fill:#fff;opacity:0.5"></path><path d="M230.6,406.88q-9,5.94-18.29,11.55c-6.15,3.77-12.36,7.43-18.58,11.08s-12.49,7.2-18.79,10.69-12.66,6.92-19.08,10.21q9-6,18.29-11.56c6.15-3.76,12.36-7.43,18.58-11.07s12.49-7.2,18.79-10.69S224.18,410.17,230.6,406.88Z" style="fill:#92E3A9"></path></g></g></svg>